<?xml version="1.0" encoding="iso-8859-1"?>
<!-- Uploaded to: SVG Repo, www.svgrepo.com, Generator: SVG Repo Mixer Tools -->
<svg fill="#1C274C" height="800px" width="800px" version="1.1" id="Layer_1" xmlns="http://www.w3.org/2000/svg" xmlns:xlink="http://www.w3.org/1999/xlink" 
	 viewBox="0 0 512.001 512.001" xml:space="preserve">
<g>
	<g>
		<circle cx="143.643" cy="299.02" r="8.67"/>
	</g>
</g>
<g>
	<g>
		<circle cx="168.566" cy="274.651" r="8.67"/>
	</g>
</g>
<g>
	<g>
		<circle cx="192.217" cy="251.555" r="8.67"/>
	</g>
</g>
<g>
	<g>
		<path d="M333.578,268.822c-0.001,0-0.001,0-0.001,0l-23.569-24.123c-3.836-3.928-8.97-6.126-14.459-6.189
			c-5.501-0.029-10.672,2.014-14.599,5.85l-48.984,47.859c-0.002,0.002-0.005,0.003-0.007,0.006
			c-0.002,0.002-0.003,0.005-0.006,0.007l-21.349,20.859c-0.001,0.001-0.003,0.002-0.005,0.003l-27.211,26.587
			c-0.002,0.002-0.005,0.003-0.006,0.006c-0.001,0.002-0.003,0.003-0.006,0.006l-8.491,8.297l-39.323,38.42
			c-3.926,3.836-6.123,8.97-6.187,14.459c-0.065,5.49,2.014,10.673,5.85,14.599l23.569,24.125c4.021,4.113,9.358,6.178,14.701,6.178
			c5.181,0,10.369-1.943,14.359-5.841l72.69-71.022c0.001-0.001,0.002-0.001,0.002-0.002c0,0,0.001-0.002,0.002-0.002l72.69-71.022
			C341.344,289.962,341.496,276.927,333.578,268.822z M175.737,427.525c-1.266,1.237-3.302,1.214-4.54-0.052l-23.569-24.125
			c-0.808-0.827-0.919-1.783-0.913-2.278c0.006-0.497,0.139-1.45,0.965-2.258l41.618-40.663l28.055,28.715L175.737,427.525z
			 M229.757,374.745l-28.055-28.715l12.472-12.185l28.056,28.714L229.757,374.745z M254.631,350.441l-28.056-28.714l11.3-11.041
			l28.056,28.714L254.631,350.441z M321.123,285.476l-42.789,41.806l-28.056-28.714l42.789-41.807
			c0.808-0.79,1.74-0.914,2.245-0.914c0.012,0,0.024,0,0.035,0c0.496,0.006,1.45,0.14,2.258,0.966l23.569,24.123
			C322.412,282.203,322.387,284.239,321.123,285.476z"/>
	</g>
</g>
<g>
	<g>
		<path d="M504.594,106.776L411.573,11.57c-10.024-10.258-26.523-10.449-36.78-0.427c-4.97,4.855-7.751,11.355-7.831,18.303
			c-0.025,2.187,0.247,4.328,0.745,6.401l-10.049,9.818c-13.611,13.297-12.972,35.399-12.458,53.156
			c0.067,2.334,0.133,4.602,0.163,6.767c0.184,13.655-6.767,33.975-12.091,39.175l-67.114,65.573L37.432,433.812
			c-9.604-4.689-21.529-3.154-29.599,4.731c-4.97,4.855-7.751,11.355-7.831,18.303c-0.081,6.948,2.549,13.51,7.404,18.478
			l24.529,25.106c5.087,5.207,11.844,7.82,18.608,7.82c6.559,0,13.123-2.459,18.173-7.394c4.97-4.855,7.751-11.355,7.831-18.303
			c0.049-4.113-0.876-8.082-2.628-11.674l31.695-30.967l32.523,33.286c8.515,8.716,19.917,13.594,32.102,13.735
			c0.182,0.002,0.362,0.003,0.544,0.003c11.982,0,23.282-4.601,31.867-12.99l51.055-49.884l8.15,8.34
			c1.699,1.739,3.949,2.61,6.202,2.61c2.185,0,4.372-0.821,6.057-2.469c3.425-3.347,3.489-8.835,0.142-12.26l-8.149-8.34
			l12.472-12.185l8.15,8.34c1.699,1.739,3.949,2.61,6.202,2.61c2.185,0,4.372-0.821,6.057-2.469
			c3.425-3.347,3.489-8.835,0.142-12.26l-8.149-8.34l11.3-11.041l8.15,8.34c1.699,1.739,3.949,2.61,6.202,2.61
			c2.185,0,4.372-0.821,6.057-2.469c3.425-3.347,3.489-8.835,0.142-12.26l-8.149-8.339l52.226-51.029
			c17.993-17.58,18.328-46.52,0.749-64.513l-36.989-37.859c-0.652-0.667-1.325-1.303-2.007-1.921
			c-0.007-0.007-0.013-0.014-0.02-0.02c-0.02-0.017-0.04-0.032-0.06-0.05c-10.15-9.309-23.4-11.162-24.257-11.28
			c-0.155-0.022-0.307-0.057-0.462-0.076l41.524-40.572c6.431-6.284,10.599-17.116,12.964-25.096
			c2.818-9.513,4.445-19.5,4.347-26.715c-0.03-2.251-0.098-4.608-0.169-7.034c-0.415-14.375-0.933-32.265,7.245-40.253l7.419-7.248
			l87.364,89.417l-7.418,7.248c-7.553,7.381-23.626,9.478-46.475,6.067c-16.69-2.493-42.032,5.138-53.163,16.015l-10.046,9.817
			c-3.425,3.347-3.489,8.835-0.142,12.26c3.347,3.423,8.835,3.489,12.259,0.142l10.046-9.815
			c6.596-6.445,26.44-13.066,38.484-11.269c28.829,4.306,49.405,0.667,61.154-10.813l10.061-9.829
			c2.186,0.577,4.427,0.894,6.676,0.894c6.559,0,13.124-2.459,18.174-7.394c4.97-4.855,7.751-11.355,7.831-18.303
			C512.079,118.307,509.449,111.745,504.594,106.776z M56.598,488.455c-3.419,3.342-8.918,3.277-12.26-0.142l-24.529-25.106
			c-1.618-1.657-2.495-3.844-2.468-6.159c0.025-2.315,0.954-4.482,2.61-6.1c1.684-1.645,3.873-2.465,6.059-2.465
			c2.133,0,4.261,0.791,5.921,2.346c0.077,0.086,0.148,0.176,0.229,0.259l24.232,24.801c0.138,0.141,0.284,0.267,0.429,0.396
			c1.565,1.646,2.416,3.795,2.389,6.07C59.182,484.67,58.253,486.836,56.598,488.455z M318.267,223.203l36.989,37.859
			c10.898,11.154,10.688,29.095-0.465,39.994l-58.425,57.084c-0.001,0.001-0.002,0.002-0.003,0.003
			c-0.001,0.001-0.002,0.002-0.003,0.003l-105.83,103.401c-5.403,5.279-12.53,8.171-20.093,8.05
			c-7.553-0.088-14.62-3.111-19.9-8.515l-38.581-39.487c-1.698-1.739-3.949-2.611-6.202-2.611c-2.185,0-4.371,0.821-6.057,2.469
			l-36.938,36.09l-12.112-12.398l227.622-222.399c0.002-0.002,0.005-0.003,0.006-0.006l0.001-0.001
			c0.682-0.666,2.683-2.276,2.963-2.483c0.465-0.344,7.357-5.654,16.731-5.54C310.33,214.867,317.744,222.667,318.267,223.203z
			 M492.049,131.154c-3.419,3.34-8.918,3.276-12.258-0.14l-21.294-21.795l-71.729-73.414c-1.618-1.657-2.495-3.844-2.468-6.159
			c0.025-2.315,0.954-4.482,2.61-6.1c1.684-1.645,3.873-2.465,6.059-2.465c2.253,0,4.506,0.87,6.202,2.606l93.021,95.206
			c1.618,1.656,2.495,3.844,2.468,6.159C494.633,127.369,493.706,129.536,492.049,131.154z"/>
	</g>
</g>
</svg>