<?xml version="1.0" encoding="iso-8859-1"?>
<!-- Uploaded to: SVG Repo, www.svgrepo.com, Generator: SVG Repo Mixer Tools -->
<svg version="1.1" id="Layer_1" xmlns="http://www.w3.org/2000/svg" xmlns:xlink="http://www.w3.org/1999/xlink" 
	 viewBox="0 0 512 512" xml:space="preserve">
<path style="fill:#1C274C;" d="M368.828,54.878l-18.557,18.39C325.151,47.919,291.673,33.959,256,33.959
	c-35.453,0-68.775,13.803-93.832,38.86l-18.777-18.16l0.303-0.303C172.429,25.61,212.135,7.837,256,7.837
	C300.126,7.837,340.041,25.83,368.828,54.878z"/>
<rect x="84.114" y="171.363" style="fill:#1C274C;" width="26.122" height="52.245"/>
<rect x="84.114" y="171.363" style="fill:#1C274C;" width="26.122" height="26.122"/>
<rect x="401.763" y="171.363" style="fill:#1C274C;" width="26.122" height="52.245"/>
<rect x="401.763" y="171.363" style="fill:#1C274C;" width="26.122" height="26.122"/>
<rect x="375.641" y="281.078" style="fill:#1C274C;" width="26.122" height="52.245"/>
<rect x="339.069" y="260.18" style="fill:#1C274C;" width="36.571" height="94.041"/>
<rect x="339.069" y="260.18" style="fill:#1C274C;" width="36.571" height="21.943"/>
<g>
	<rect x="339.069" y="332.278" style="fill:#1C274C;" width="36.571" height="21.943"/>
	<rect x="110.237" y="281.078" style="fill:#1C274C;" width="26.122" height="52.245"/>
</g>
<rect x="136.359" y="260.18" style="fill:#1C274C;" width="36.571" height="94.041"/>
<rect x="136.359" y="260.18" style="fill:#1C274C;" width="36.571" height="21.943"/>
<rect x="136.359" y="332.278" style="fill:#1C274C;" width="36.571" height="21.943"/>
<path d="M355.839,67.748C329.237,40.906,293.78,26.122,256,26.122c-37.548,0-72.84,14.618-99.373,41.161l11.084,11.08
	c23.573-23.58,54.927-36.567,88.289-36.567c33.567,0,65.07,13.134,88.707,36.985L355.839,67.748z"/>
<path d="M435.722,163.527h-13.101C420.943,73.071,346.85,0,256,0S91.057,73.071,89.378,163.527H76.278v67.918H102.4v109.714h26.122
	v20.898h18.286v64.261c0,15.845,12.89,28.735,28.735,28.735h38.661c18.725,0,33.959,15.235,33.959,33.959V512h15.673v-22.988
	c0-27.367-22.266-49.633-49.633-49.633h-38.661c-7.202,0-13.061-5.859-13.061-13.061v-64.261h18.286V252.343h-52.245v20.898h-10.449
	V163.527h-13.022C106.728,81.713,173.793,15.673,256,15.673s149.272,66.04,150.948,147.853h-13.022v109.714h-10.449v-20.898h-52.245
	v109.714h18.286v64.261c0,7.202-5.859,13.061-13.061,13.061h-38.661c-10.616,0-20.744,3.31-29.292,9.571l9.263,12.644
	c5.841-4.28,12.767-6.541,20.029-6.541h38.661c15.845,0,28.735-12.89,28.735-28.735v-64.261h18.286V341.16H409.6V231.446h26.122
	V163.527z M144.196,268.016h20.898v78.367h-20.898V268.016z M128.522,325.486h-10.449v-36.571h10.449V325.486z M91.951,179.2H102.4
	v36.571H91.951V179.2z M367.804,346.384h-20.898v-78.367h20.898V346.384z M393.927,325.486h-10.449v-36.571h10.449V325.486z
	 M420.049,215.771H409.6V179.2h10.449V215.771z"/>
</svg>