<?xml version="1.0" encoding="iso-8859-1"?>
<!-- Uploaded to: SVG Repo, www.svgrepo.com, Generator: SVG Repo Mixer Tools -->
<svg fill="#1C274C" height="800px" width="800px" version="1.1" id="Layer_1" xmlns="http://www.w3.org/2000/svg" xmlns:xlink="http://www.w3.org/1999/xlink" 
	 viewBox="0 0 512 512" xml:space="preserve">
<g>
	<g>
		<path d="M512,36.623c0-2.892-1.127-5.613-3.172-7.658L483.032,3.168c-4.222-4.221-11.092-4.221-15.317,0.001l-5.024,5.024
			l-0.252-0.252c-3.357-3.364-8.806-3.368-12.168-0.011c-3.364,3.357-3.37,8.806-0.013,12.17l0.264,0.265l-5.029,5.029
			c-3.151,3.153-3.944,7.783-2.388,11.684l-5.832,5.453l-1.145-1.145c-3.362-3.36-8.809-3.36-12.169,0
			c-3.36,3.36-3.36,8.808,0,12.168l0.737,0.737L304.204,166.934c-16.085-10.071-33.83-16.128-50.634-17.175
			c-20.482-1.277-38.704,4.985-51.349,17.628c-10.245,10.243-17.316,19.916-22.224,30.401c-1.964,3.308-6.364,9.006-14.653,12.227
			c-4.997,1.961-8.27,6.697-8.336,12.065c-0.067,5.342,3.048,10.139,7.946,12.253l0.464,0.208c0.295,0.166,0.6,0.315,0.916,0.445
			c0.995,0.413,1.29,0.844,1.381,0.98c0.885,1.298,0.483,5.045-2.489,10.208c-3.837,6.666-10.84,13.758-19.222,19.465
			c-8.363,5.706-17.521,9.626-25.125,10.756c-5.792,0.862-9.408-0.091-10.375-1.358c-0.179-0.32-1.023-1.899-3.234-7.051
			c-1.96-4.547-6.397-7.461-11.34-7.461c-0.055,0-0.11,0-0.164,0.001c-5.002,0.065-9.437,3.107-11.295,7.748
			c-1.509,3.766-3.698,7.098-6.506,9.907c-3.145,3.145-7.003,5.522-11.155,6.872c-19.29,6.262-35.258,15.344-46.179,26.264
			c-18.372,18.373-24.765,44.834-18,74.512c5.578,24.467,19.611,49.614,39.785,71.593L2.997,496.839c-3.36,3.36-3.36,8.808,0,12.168
			c1.681,1.681,3.884,2.521,6.085,2.521s4.405-0.84,6.085-2.521l39.417-39.417c21.974,20.172,47.12,34.205,71.589,39.779
			c7.718,1.759,15.216,2.627,22.412,2.627c20.478,0,38.504-7.036,52.097-20.631c10.904-10.903,19.991-26.862,26.283-46.164
			c2.595-8.006,8.703-14.448,16.751-17.672c1.597-0.637,3.006-1.561,4.183-2.74c2.877-2.877,4.135-7.005,3.366-11.044
			c-0.766-4.016-3.472-7.385-7.269-9.028c-5.211-2.229-6.716-3.042-7.02-3.216c-3.419-2.514-2.443-18.133,9.39-35.513
			c5.709-8.376,12.804-15.38,19.468-19.214c5.163-2.971,8.912-3.372,10.203-2.492c0.142,0.098,0.576,0.393,0.988,1.388
			c0.13,0.312,0.278,0.616,0.443,0.909l0.189,0.431c2.112,4.92,6.909,8.048,12.274,7.98c5.364-0.07,10.097-3.343,12.064-8.352
			c3.255-8.334,8.943-12.693,12.227-14.619c10.496-4.937,20.165-12.015,30.393-22.245c12.64-12.639,18.896-30.874,17.617-51.344
			c-1.05-16.801-7.103-34.547-17.165-50.639l105.839-113.21l1.092,1.092c1.681,1.681,3.884,2.521,6.085,2.521
			c2.202,0,4.405-0.84,6.085-2.521c3.36-3.36,3.36-8.808,0-12.168l-1.503-1.502l12.261-13.115c1.291,0.515,2.659,0.774,4.029,0.774
			c2.773,0,5.547-1.056,7.659-3.167l5.019-5.019l0.263,0.263c1.681,1.681,3.883,2.521,6.085,2.521c2.202,0,4.404-0.84,6.084-2.521
			c3.362-3.36,3.362-8.809,0.001-12.169l-0.263-0.264l5.029-5.029C510.874,42.237,512,39.516,512,36.623z M60.529,451.488
			c-1.662-1.662-3.269-3.354-4.849-5.057l29.162-29.163l9.892,9.892l-29.163,29.163C63.872,454.748,62.185,453.145,60.529,451.488z
			 M332.441,297.609c-8.876,8.877-17.086,14.906-25.835,18.974c-0.215,0.1-0.423,0.208-0.629,0.325
			c-4.215,2.399-11.257,7.435-16.586,16.417c-1.073-1.232-2.292-2.318-3.654-3.249c-7.493-5.112-17.616-4.478-28.495,1.786
			c-8.964,5.159-17.879,13.838-25.107,24.441c-16.628,24.426-18.693,49.989-4.828,59.445c0.263,0.179,0.571,0.379,0.98,0.615
			c-8.321,5.673-14.568,13.886-17.693,23.52c-5.374,16.486-13.217,30.448-22.085,39.316c-17.993,17.992-41.757,17.213-58.516,13.394
			c-17.13-3.904-34.768-12.64-51.207-25.149l33.592-33.592l48.223-32.021c2.15-1.427,3.546-3.745,3.802-6.313
			c0.256-2.568-0.653-5.116-2.477-6.94l-38.505-38.504c-1.825-1.825-4.376-2.733-6.941-2.477c-2.568,0.257-4.885,1.652-6.312,3.802
			l-32.02,48.223l-33.591,33.591c-12.509-16.441-21.246-34.078-25.15-51.208c-3.822-16.766-4.602-40.526,13.391-58.518
			c8.878-8.879,22.843-16.714,39.327-22.066c6.724-2.188,12.952-6.016,18.006-11.071c2.047-2.047,3.885-4.265,5.505-6.638
			c0.229,0.398,0.422,0.7,0.598,0.955c5.11,7.491,14.761,10.599,27.174,8.753c10.235-1.521,21.704-6.339,32.286-13.558
			c10.601-7.218,19.284-16.132,24.446-25.101c6.263-10.881,6.9-20.999,1.788-28.497c-0.93-1.361-2.016-2.58-3.25-3.654
			c8.931-5.298,13.987-12.324,16.411-16.537c0.127-0.221,0.246-0.449,0.352-0.68c4.039-8.736,10.061-16.945,18.951-25.835
			c16.968-16.969,48.078-16.759,76.748-0.407l-91.452,85.499c-1.703,1.592-2.688,3.809-2.727,6.142s0.87,4.58,2.518,6.229
			l35.501,35.501c1.615,1.615,3.804,2.521,6.085,2.521c0.048,0,0.096,0,0.145-0.001c2.333-0.039,4.548-1.023,6.142-2.727
			l85.494-91.447C349.182,249.546,349.395,280.656,332.441,297.609z M95.906,403.992l22.784-34.313l23.633,23.632l-34.314,22.784
			L95.906,403.992z M240.856,294.057l-22.916-22.916l236.09-220.717l7.546,7.546L240.856,294.057z M478.951,49.82l-16.774-16.774
			l13.196-13.197l16.775,16.774L478.951,49.82z"/>
	</g>
</g>
<g>
	<g>
		<path d="M226.714,349.078c5.127-8.169,2.653-18.984-5.515-24.111c-4.026-2.526-9.336-1.311-11.863,2.713
			c-2.526,4.025-1.313,9.336,2.713,11.863c0.131,0.083,0.17,0.255,0.088,0.384l-25.663,40.884
			c-2.483,3.956-3.277,8.644-2.235,13.198c1.042,4.554,3.795,8.429,7.751,10.912c1.422,0.893,3.004,1.318,4.566,1.318
			c2.863,0,5.662-1.428,7.296-4.032c2.526-4.025,1.311-9.336-2.713-11.862c-0.034-0.022-0.099-0.062-0.124-0.174
			c-0.025-0.112,0.015-0.177,0.036-0.21L226.714,349.078z"/>
	</g>
</g>
<g>
	<g>
		<path d="M187.034,290.802c-2.484-3.957-6.36-6.709-10.913-7.751c-4.556-1.042-9.242-0.248-13.197,2.236l-40.884,25.663
			c-0.033,0.022-0.1,0.062-0.211,0.036c-0.112-0.025-0.153-0.09-0.173-0.124c-2.526-4.026-7.837-5.241-11.863-2.713
			c-4.025,2.526-5.24,7.837-2.713,11.862c2.484,3.957,6.36,6.709,10.913,7.751c1.308,0.298,2.625,0.446,3.934,0.446
			c3.25,0,6.442-0.912,9.263-2.682l40.884-25.663c0.033-0.022,0.101-0.061,0.211-0.036c0.112,0.025,0.153,0.089,0.173,0.124
			c2.528,4.026,7.837,5.24,11.863,2.713C188.346,300.139,189.561,294.828,187.034,290.802z"/>
	</g>
</g>
</svg>